M48
; DRILL file KiCad 10.0.4 date 2026-07-20T16:25:33
; FORMAT={-:-/ absolute / metric / decimal}
; #@! TF.CreationDate,2026-07-20T16:25:33-03:00
; #@! TF.GenerationSoftware,Kicad,Pcbnew,10.0.4
; #@! TF.FileFunction,Plated,1,2,PTH
FMAT,2
METRIC
; #@! TA.AperFunction,Plated,PTH,ComponentDrill
T1C0.750
; #@! TA.AperFunction,Plated,PTH,ComponentDrill
T2C1.000
; #@! TA.AperFunction,Plated,PTH,ComponentDrill
T3C1.500
%
G90
G05
T1
X178.82Y-117.4
X178.82Y-121.7
X178.82Y-119.555
T2
X112.68Y-111.3
X113.497Y-87.734
X113.7Y-92.45
X113.7Y-102.45
X113.97Y-108.0
X114.82Y-80.23
X117.134Y-77.023
X118.552Y-118.56
X118.766Y-75.077
X118.97Y-108.0
X120.3Y-111.3
X120.79Y-102.757
X123.15Y-85.06
X123.29Y-90.732
X123.41Y-107.86
X123.552Y-118.56
X124.249Y-125.593
X125.79Y-102.757
X126.142Y-75.63
X126.195Y-123.961
X127.514Y-129.485
X128.28Y-117.36
X128.28Y-119.86
X129.46Y-127.852
X130.79Y-102.757
X131.142Y-75.63
X132.492Y-130.439
X133.29Y-90.732
X133.31Y-85.06
X133.57Y-107.86
X135.79Y-102.757
X135.852Y-123.18
X136.81Y-112.245
X136.81Y-119.865
X137.405Y-85.07
X137.44Y-73.92
X137.44Y-81.54
X138.325Y-107.84
X139.35Y-112.245
X139.35Y-119.865
X139.688Y-127.901
X141.89Y-112.245
X141.89Y-119.865
X142.015Y-92.36
X142.015Y-102.52
X143.325Y-107.84
X144.43Y-112.245
X144.43Y-119.865
X144.555Y-102.52
X144.555Y-92.36
X145.025Y-85.07
X145.1Y-73.92
X145.1Y-81.54
X146.053Y-124.38
X151.4Y-84.54
X151.433Y-118.41
X151.81Y-100.95
X152.49Y-90.13
X152.49Y-95.01
X153.432Y-124.41
X153.433Y-112.41
X155.55Y-61.45
X155.55Y-66.45
X156.4Y-84.54
X156.81Y-100.95
X160.31Y-61.7
X160.325Y-94.25
X160.325Y-81.55
X160.325Y-91.71
X160.325Y-71.39
X160.325Y-73.93
X160.325Y-79.01
X160.325Y-86.63
X160.325Y-96.79
X160.325Y-99.33
X160.325Y-104.41
X160.325Y-101.87
X160.325Y-89.17
X160.325Y-76.47
X160.325Y-84.09
X161.4Y-67.04
X162.85Y-61.7
X165.39Y-61.7
X165.633Y-124.41
X165.633Y-112.41
X166.4Y-67.04
X167.945Y-81.55
X167.945Y-94.25
X167.945Y-86.63
X167.945Y-91.71
X167.945Y-101.87
X167.945Y-71.39
X167.945Y-73.93
X167.945Y-79.01
X167.945Y-96.79
X167.945Y-76.47
X167.945Y-84.09
X167.945Y-89.17
X167.945Y-104.41
X167.945Y-99.33
X173.85Y-114.6
X173.85Y-122.22
X174.0Y-72.62
X174.0Y-77.62
X174.96Y-81.32
X174.96Y-83.86
X177.38Y-69.96
X177.38Y-77.58
X179.32Y-107.49
X179.32Y-115.11
X181.001Y-92.799
X181.06Y-78.26
X181.06Y-80.8
X181.06Y-83.34
X182.78Y-110.79
X183.36Y-100.06
X183.36Y-107.68
X184.311Y-95.409
X185.899Y-86.961
X186.79Y-99.48
X186.79Y-104.48
X187.035Y-75.55
X188.305Y-77.75
X189.209Y-89.571
X190.126Y-81.347
X190.29Y-100.8
X190.4Y-110.79
X190.994Y-83.733
X191.419Y-94.399
X194.721Y-101.581
X195.85Y-95.18
T3
X143.38Y-134.37
X153.38Y-134.37
X163.38Y-134.37
M30
