%TF.GenerationSoftware,KiCad,Pcbnew,10.0.4*%
%TF.CreationDate,2026-07-20T16:25:44-03:00*%
%TF.ProjectId,Projeto,50726f6a-6574-46f2-9e6b-696361645f70,rev?*%
%TF.SameCoordinates,Original*%
%TF.FileFunction,Copper,L2,Bot*%
%TF.FilePolarity,Positive*%
%FSLAX46Y46*%
G04 Gerber Fmt 4.6, Leading zero omitted, Abs format (unit mm)*
G04 Created by KiCad (PCBNEW 10.0.4) date 2026-07-20 16:25:44*
%MOMM*%
%LPD*%
G01*
G04 APERTURE LIST*
%TA.AperFunction,ComponentPad*%
%ADD10C,1.500000*%
%TD*%
%TA.AperFunction,ComponentPad*%
%ADD11C,2.000000*%
%TD*%
%TA.AperFunction,ComponentPad*%
%ADD12C,3.000000*%
%TD*%
%TA.AperFunction,Conductor*%
%ADD13C,1.500000*%
%TD*%
%TA.AperFunction,Conductor*%
%ADD14C,0.500000*%
%TD*%
G04 APERTURE END LIST*
D10*
%TO.P,Q1,1,C_1*%
%TO.N,Net-(D3-A)*%
X178820000Y-121700000D03*
%TO.P,Q1,2,B_2*%
%TO.N,Net-(Q1-B)*%
X178820002Y-119555001D03*
%TO.P,Q1,3,E_3*%
%TO.N,GND*%
X178820000Y-117400000D03*
%TD*%
D11*
%TO.P,R2,2*%
%TO.N,PB4*%
X190400000Y-110790000D03*
%TO.P,R2,1*%
%TO.N,+5V*%
X182780000Y-110790000D03*
%TD*%
%TO.P,J2,3,Pin_3_3*%
%TO.N,+5V*%
X181060002Y-83340002D03*
%TO.P,J2,2,Pin_2_2*%
%TO.N,PB5*%
X181059997Y-80800003D03*
%TO.P,J2,1,Pin_1_1*%
%TO.N,GND*%
X181059997Y-78260003D03*
%TD*%
%TO.P,LDR1,2*%
%TO.N,PC0*%
X174959999Y-81319998D03*
%TO.P,LDR1,1*%
%TO.N,+5V*%
X174959999Y-83859998D03*
%TD*%
%TO.P,C7,1*%
%TO.N,PC0*%
X174000000Y-77620000D03*
%TO.P,C7,2*%
%TO.N,GND*%
X174000000Y-72620000D03*
%TD*%
%TO.P,R1,1*%
%TO.N,PC0*%
X177380002Y-77580003D03*
%TO.P,R1,2*%
%TO.N,GND*%
X177380002Y-69960003D03*
%TD*%
%TO.P,D1,1,K_1*%
%TO.N,GND*%
X187035001Y-75550149D03*
%TO.P,D1,2,A_2*%
%TO.N,Net-(D1-A)*%
X188305001Y-77749854D03*
%TD*%
%TO.P,C12,1*%
%TO.N,PB7*%
X151810002Y-100950000D03*
%TO.P,C12,2*%
%TO.N,GND*%
X156810002Y-100950000D03*
%TD*%
%TO.P,Y1,1,1_1*%
%TO.N,PB6*%
X152490005Y-90130000D03*
%TO.P,Y1,2,2_2*%
%TO.N,PB7*%
X152490005Y-95010000D03*
%TD*%
%TO.P,C11,2*%
%TO.N,GND*%
X156400002Y-84540000D03*
%TO.P,C11,1*%
%TO.N,PB6*%
X151400002Y-84540000D03*
%TD*%
%TO.P,R4,1*%
%TO.N,PB2*%
X181000980Y-92798628D03*
%TO.P,R4,2*%
%TO.N,Net-(D1-A)*%
X185899022Y-86961369D03*
%TD*%
%TO.P,D2,1,K_1*%
%TO.N,GND*%
X190125634Y-81346590D03*
%TO.P,D2,2,A_2*%
%TO.N,Net-(D2-A)*%
X190994365Y-83733410D03*
%TD*%
%TO.P,R5,2*%
%TO.N,Net-(D2-A)*%
X189209017Y-89571369D03*
%TO.P,R5,1*%
%TO.N,PB1*%
X184310975Y-95408628D03*
%TD*%
%TO.P,U1,28,PC5_28*%
%TO.N,unconnected-(U1-PC5-Pad28)*%
X167944999Y-71390002D03*
%TO.P,U1,27,PC4_27*%
%TO.N,unconnected-(U1-PC4-Pad27)*%
X167944999Y-73930002D03*
%TO.P,U1,26,PC3_26*%
%TO.N,unconnected-(U1-PC3-Pad26)*%
X167945000Y-76469995D03*
%TO.P,U1,25,PC2_25*%
%TO.N,unconnected-(U1-PC2-Pad25)*%
X167944999Y-79010002D03*
%TO.P,U1,24,PC1_24*%
%TO.N,unconnected-(U1-PC1-Pad24)*%
X167944996Y-81550001D03*
%TO.P,U1,23,PC0_23*%
%TO.N,PC0*%
X167945000Y-84089998D03*
%TO.P,U1,22,GND_22*%
%TO.N,GND*%
X167944998Y-86630001D03*
%TO.P,U1,21,AREF_21*%
%TO.N,unconnected-(U1-AREF-Pad21)*%
X167945000Y-89170006D03*
%TO.P,U1,20,AVCC_20*%
%TO.N,unconnected-(U1-AVCC-Pad20)*%
X167944998Y-91709995D03*
%TO.P,U1,19,PB5_19*%
%TO.N,PB5*%
X167944997Y-94249999D03*
%TO.P,U1,18,PB4_18*%
%TO.N,PB4*%
X167944999Y-96790004D03*
%TO.P,U1,17,PB3_17*%
%TO.N,PB3*%
X167945001Y-99329999D03*
%TO.P,U1,16,PB2_16*%
%TO.N,PB2*%
X167944998Y-101870001D03*
%TO.P,U1,15,PB1_15*%
%TO.N,PB1*%
X167945000Y-104410003D03*
%TO.P,U1,14,PB0_14*%
%TO.N,unconnected-(U1-PB0-Pad14)*%
X160324999Y-104410004D03*
%TO.P,U1,13,PD7_13*%
%TO.N,unconnected-(U1-PD7-Pad13)*%
X160325000Y-101870004D03*
%TO.P,U1,12,PD6_12*%
%TO.N,unconnected-(U1-PD6-Pad12)*%
X160324999Y-99330002D03*
%TO.P,U1,11,PD5_11*%
%TO.N,unconnected-(U1-PD5-Pad11)*%
X160324999Y-96790002D03*
%TO.P,U1,10,XTAL2/PB7_10*%
%TO.N,PB7*%
X160324993Y-94250001D03*
%TO.P,U1,9,XTAL1/PB6_9*%
%TO.N,PB6*%
X160324998Y-91710007D03*
%TO.P,U1,8,GND_8*%
%TO.N,GND*%
X160325001Y-89170004D03*
%TO.P,U1,7,VCC_7*%
%TO.N,+5V*%
X160324999Y-86630002D03*
%TO.P,U1,6,PD4_6*%
%TO.N,unconnected-(U1-PD4-Pad6)*%
X160325004Y-84090003D03*
%TO.P,U1,5,PD3_5*%
%TO.N,unconnected-(U1-PD3-Pad5)*%
X160324998Y-81550002D03*
%TO.P,U1,4,PD2_4*%
%TO.N,unconnected-(U1-PD2-Pad4)*%
X160324999Y-79010002D03*
%TO.P,U1,3,PD1_3*%
%TO.N,unconnected-(U1-PD1-Pad3)*%
X160325004Y-76470001D03*
%TO.P,U1,2,PD0_2*%
%TO.N,unconnected-(U1-PD0-Pad2)*%
X160324999Y-73930002D03*
%TO.P,U1,1,~{RESET}/PC6_1*%
%TO.N,unconnected-(U1-~{RESET}{slash}PC6-Pad1)*%
X160324999Y-71390002D03*
%TD*%
%TO.P,U4,4*%
%TO.N,Net-(U3-FB)*%
X144555000Y-102520000D03*
%TO.P,U4,3*%
%TO.N,Earth*%
X142015002Y-102520003D03*
%TO.P,U4,2*%
%TO.N,Net-(D7-K)*%
X142015001Y-92360000D03*
%TO.P,U4,1*%
%TO.N,Net-(R8-Pad1)*%
X144555001Y-92360000D03*
%TD*%
%TO.P,C5,2*%
%TO.N,Earth*%
X138325000Y-107840000D03*
%TO.P,C5,1*%
%TO.N,Net-(U3-FB)*%
X143325000Y-107840000D03*
%TD*%
%TO.P,U3,8,OC_8*%
%TO.N,Net-(D5-A)*%
X136809999Y-112245001D03*
%TO.P,U3,7,OC_7*%
X139349999Y-112245001D03*
%TO.P,U3,6,NC_6*%
%TO.N,Earth*%
X141889992Y-112245000D03*
%TO.P,U3,5,FB_5*%
%TO.N,Net-(U3-FB)*%
X144429999Y-112245001D03*
%TO.P,U3,4,NC_4*%
%TO.N,Earth*%
X144429999Y-119865001D03*
%TO.P,U3,3,GND_3*%
X141889998Y-119864996D03*
%TO.P,U3,2,VCC_2*%
%TO.N,Net-(U3-VCC)*%
X139349999Y-119865001D03*
%TO.P,U3,1,OB_1*%
%TO.N,unconnected-(U3-OB-Pad1)*%
X136809999Y-119865001D03*
%TD*%
D12*
%TO.P,J3,3,Pin_3_3*%
%TO.N,CARGA*%
X163380000Y-134370000D03*
%TO.P,J3,2,Pin_2_2*%
%TO.N,NEUTRO*%
X153380000Y-134370000D03*
%TO.P,J3,1,Pin_1_1*%
%TO.N,FASE*%
X143380000Y-134370000D03*
%TD*%
D11*
%TO.P,C1,1*%
%TO.N,Net-(D4-+)*%
X118552321Y-118560000D03*
%TO.P,C1,2*%
%TO.N,Earth*%
X123552321Y-118560000D03*
%TD*%
%TO.P,C10,1*%
%TO.N,+5V*%
X166399999Y-67040000D03*
%TO.P,C10,2*%
%TO.N,GND*%
X161399999Y-67040000D03*
%TD*%
%TO.P,R6,1*%
%TO.N,Net-(Q1-B)*%
X179320000Y-115110000D03*
%TO.P,R6,2*%
%TO.N,PB3*%
X179320000Y-107490000D03*
%TD*%
%TO.P,D7,1,K_1*%
%TO.N,Net-(D7-K)*%
X137440000Y-81540000D03*
%TO.P,D7,2,A_2*%
%TO.N,GND*%
X137440000Y-73920000D03*
%TD*%
%TO.P,D4,1,+_1*%
%TO.N,Net-(D4-+)*%
X126194877Y-123960761D03*
%TO.P,D4,2,-_2*%
%TO.N,Earth*%
X124249124Y-125593442D03*
%TO.P,D4,3*%
%TO.N,NEUTRO*%
X127514486Y-129484944D03*
%TO.P,D4,4*%
%TO.N,Net-(D4-Pad4)*%
X129460240Y-127852263D03*
%TD*%
%TO.P,R8,1*%
%TO.N,Net-(R8-Pad1)*%
X145100000Y-81540001D03*
%TO.P,R8,2*%
%TO.N,+9V*%
X145100000Y-73920001D03*
%TD*%
%TO.P,C8,1*%
%TO.N,PB4*%
X186790000Y-104479998D03*
%TO.P,C8,2*%
%TO.N,GND*%
X186790000Y-99479998D03*
%TD*%
%TO.P,R7,1*%
%TO.N,Net-(D4-+)*%
X112680000Y-111300000D03*
%TO.P,R7,2*%
%TO.N,Net-(D5-K)*%
X120300000Y-111300000D03*
%TD*%
%TO.P,R9,1*%
%TO.N,Net-(R8-Pad1)*%
X145025000Y-85070000D03*
%TO.P,R9,2*%
%TO.N,Net-(D7-K)*%
X137405000Y-85070000D03*
%TD*%
%TO.P,RV1,1*%
%TO.N,Net-(D4-Pad4)*%
X139687594Y-127901220D03*
%TO.P,RV1,2*%
%TO.N,NEUTRO*%
X132492403Y-130438784D03*
%TD*%
%TO.P,C2,1*%
%TO.N,Net-(D4-+)*%
X113970001Y-108000000D03*
%TO.P,C2,2*%
%TO.N,Net-(D5-K)*%
X118970001Y-108000000D03*
%TD*%
%TO.P,D3,1,K_1*%
%TO.N,+5V*%
X173849998Y-114600001D03*
%TO.P,D3,2,A_2*%
%TO.N,Net-(D3-A)*%
X173849998Y-122220001D03*
%TD*%
%TO.P,F1,1*%
%TO.N,FASE*%
X146052503Y-124379997D03*
%TO.P,F1,2*%
%TO.N,Net-(D4-Pad4)*%
X135852500Y-123179997D03*
%TD*%
%TO.P,D5,1,K_1*%
%TO.N,Net-(D5-K)*%
X123410000Y-107859999D03*
%TO.P,D5,2,A_2*%
%TO.N,Net-(D5-A)*%
X133570000Y-107860000D03*
%TD*%
%TO.P,K1,1*%
%TO.N,FASE*%
X151432500Y-118410000D03*
%TO.P,K1,2*%
%TO.N,Net-(D3-A)*%
X153432497Y-124409999D03*
%TO.P,K1,3*%
%TO.N,CARGA*%
X165632501Y-124410002D03*
%TO.P,K1,4*%
%TO.N,unconnected-(K1-Pad4)*%
X165632502Y-112409999D03*
%TO.P,K1,5*%
%TO.N,+5V*%
X153432501Y-112409996D03*
%TD*%
%TO.P,D6,1,K_1*%
%TO.N,+9V*%
X133309998Y-85059999D03*
%TO.P,D6,2,A_2*%
%TO.N,Net-(D6-A)*%
X123149998Y-85059998D03*
%TD*%
%TO.P,C6,1*%
%TO.N,+9V*%
X126142323Y-75630000D03*
%TO.P,C6,2*%
%TO.N,GND*%
X131142323Y-75630000D03*
%TD*%
%TO.P,R3,2*%
%TO.N,Net-(R3-Pad2)*%
X183360002Y-100060002D03*
%TO.P,R3,1*%
%TO.N,PB4*%
X183360002Y-107680002D03*
%TD*%
%TO.P,SW1,1,1_1*%
%TO.N,GND*%
X195850175Y-95180088D03*
X194721461Y-101581341D03*
%TO.P,SW1,2,2_2*%
%TO.N,Net-(R3-Pad2)*%
X191418540Y-94398672D03*
X190289825Y-100799917D03*
%TD*%
%TO.P,C4,1*%
%TO.N,Net-(D4-+)*%
X113700000Y-102450000D03*
%TO.P,C4,2*%
%TO.N,GND*%
X113700000Y-92449999D03*
%TD*%
%TO.P,D8,1,K_1*%
%TO.N,Net-(D8-K)*%
X117133662Y-77022874D03*
%TO.P,D8,2,A_2*%
%TO.N,+9V*%
X118766343Y-75077121D03*
%TD*%
%TO.P,C9,1*%
%TO.N,+9V*%
X155549999Y-61450002D03*
%TO.P,C9,2*%
%TO.N,GND*%
X155549999Y-66450002D03*
%TD*%
%TO.P,R10,1*%
%TO.N,GND*%
X113496801Y-87734235D03*
%TO.P,R10,2*%
%TO.N,Net-(D8-K)*%
X114820000Y-80230000D03*
%TD*%
%TO.P,U2,1,VI_1*%
%TO.N,+9V*%
X160310000Y-61700000D03*
%TO.P,U2,2,GND_2*%
%TO.N,GND*%
X162850000Y-61700000D03*
%TO.P,U2,3,VO_3*%
%TO.N,+5V*%
X165389999Y-61699995D03*
%TD*%
%TO.P,C3,1*%
%TO.N,Net-(U3-VCC)*%
X128280002Y-117360001D03*
%TO.P,C3,2*%
%TO.N,Earth*%
X128280002Y-119860001D03*
%TD*%
%TO.P,T2,1,AA_1*%
%TO.N,Net-(D4-+)*%
X120790357Y-102757141D03*
%TO.P,T2,2,AB_2*%
%TO.N,Net-(D5-K)*%
X130790361Y-102757139D03*
%TO.P,T2,3,SA_3*%
%TO.N,GND*%
X133290359Y-90732140D03*
%TO.P,T2,4,SB_4*%
%TO.N,Net-(D6-A)*%
X123290356Y-90732145D03*
%TO.P,T2,6*%
%TO.N,N/C*%
X135790357Y-102757139D03*
%TO.P,T2,9*%
X125790359Y-102757143D03*
%TD*%
%TO.N,GND*%
D13*
X149970000Y-112950000D02*
X149970000Y-107790002D01*
X154420000Y-117400000D02*
X149970000Y-112950000D01*
X178820000Y-117400000D02*
X154420000Y-117400000D01*
X149970000Y-107790002D02*
X156810002Y-100950000D01*
%TO.N,Net-(D3-A)*%
X178299999Y-122220001D02*
X178820000Y-121700000D01*
X173849998Y-122220001D02*
X178299999Y-122220001D01*
%TO.N,Net-(Q1-B)*%
X181350000Y-115110000D02*
X179320000Y-115110000D01*
X181990000Y-118180000D02*
X181990000Y-115750000D01*
X180614999Y-119555001D02*
X181990000Y-118180000D01*
X178820002Y-119555001D02*
X180614999Y-119555001D01*
X181990000Y-115750000D02*
X181350000Y-115110000D01*
%TO.N,PB1*%
X176320003Y-104410003D02*
X179380000Y-107470000D01*
X167945000Y-104410003D02*
X176320003Y-104410003D01*
%TO.N,Net-(D6-A)*%
X123149998Y-90591787D02*
X123290356Y-90732145D01*
X123149998Y-85059998D02*
X123149998Y-90591787D01*
%TO.N,GND*%
X130572500Y-93449999D02*
X133290359Y-90732140D01*
X114700000Y-93449999D02*
X130572500Y-93449999D01*
X113700000Y-92449999D02*
X114700000Y-93449999D01*
X113496801Y-92246800D02*
X113700000Y-92449999D01*
X113496801Y-87734235D02*
X113496801Y-92246800D01*
%TO.N,Net-(D8-K)*%
X117133662Y-77916338D02*
X114820000Y-80230000D01*
X117133662Y-77022874D02*
X117133662Y-77916338D01*
%TO.N,+9V*%
X119319222Y-75630000D02*
X118766343Y-75077121D01*
X126142323Y-75630000D02*
X119319222Y-75630000D01*
X133309998Y-82797675D02*
X126142323Y-75630000D01*
X133309998Y-85059999D02*
X133309998Y-82797675D01*
%TO.N,Net-(D7-K)*%
X137405000Y-81575000D02*
X137440000Y-81540000D01*
X137405000Y-85070000D02*
X137405000Y-81575000D01*
%TO.N,Net-(R8-Pad1)*%
X145100000Y-84995000D02*
X145025000Y-85070000D01*
X145100000Y-81540001D02*
X145100000Y-84995000D01*
X144555001Y-85539999D02*
X145025000Y-85070000D01*
X144555001Y-92360000D02*
X144555001Y-85539999D01*
%TO.N,Net-(D7-K)*%
X142015001Y-89680001D02*
X137405000Y-85070000D01*
X142015001Y-92360000D02*
X142015001Y-89680001D01*
%TO.N,Net-(D5-A)*%
X136809999Y-112245001D02*
X139349999Y-112245001D01*
X133570000Y-107860000D02*
X133570000Y-109005002D01*
X133570000Y-109005002D02*
X136809999Y-112245001D01*
%TO.N,Net-(D5-K)*%
X125687501Y-107859999D02*
X130790361Y-102757139D01*
X123410000Y-107859999D02*
X125687501Y-107859999D01*
%TO.N,Net-(D4-+)*%
X114007141Y-102757141D02*
X113700000Y-102450000D01*
X120790357Y-102757141D02*
X114007141Y-102757141D01*
X113700000Y-107729999D02*
X113970001Y-108000000D01*
X113700000Y-102450000D02*
X113700000Y-107729999D01*
X112680000Y-112687679D02*
X118552321Y-118560000D01*
X112680000Y-111300000D02*
X112680000Y-112687679D01*
X112680000Y-109290001D02*
X113970001Y-108000000D01*
X112680000Y-111300000D02*
X112680000Y-109290001D01*
%TO.N,Net-(D5-K)*%
X119110002Y-107859999D02*
X118970001Y-108000000D01*
X123410000Y-107859999D02*
X119110002Y-107859999D01*
X120300000Y-109329999D02*
X118970001Y-108000000D01*
X120300000Y-111300000D02*
X120300000Y-109329999D01*
%TO.N,Net-(U3-FB)*%
X143325000Y-107840000D02*
X144429999Y-108944999D01*
X144429999Y-108944999D02*
X144429999Y-112245001D01*
X144555000Y-106610000D02*
X143325000Y-107840000D01*
X144555000Y-102520000D02*
X144555000Y-106610000D01*
%TO.N,Earth*%
X142015002Y-104149998D02*
X138325000Y-107840000D01*
X142015002Y-102520003D02*
X142015002Y-104149998D01*
X141889992Y-111404992D02*
X141889992Y-112245000D01*
X138325000Y-107840000D02*
X141889992Y-111404992D01*
X144429999Y-119865001D02*
X141890003Y-119865001D01*
X141890003Y-119865001D02*
X141889998Y-119864996D01*
X141889998Y-112245006D02*
X141889992Y-112245000D01*
X141889998Y-119864996D02*
X141889998Y-112245006D01*
%TO.N,Net-(U3-VCC)*%
X139349999Y-118450788D02*
X139349999Y-119865001D01*
X138259212Y-117360001D02*
X139349999Y-118450788D01*
X128280002Y-117360001D02*
X138259212Y-117360001D01*
%TO.N,Earth*%
X124852322Y-119860001D02*
X128280002Y-119860001D01*
X123552321Y-118560000D02*
X124852322Y-119860001D01*
X124866443Y-126210761D02*
X127126858Y-126210761D01*
X127126858Y-126210761D02*
X128444877Y-124892742D01*
X128444877Y-124892742D02*
X128444877Y-120024876D01*
X128444877Y-120024876D02*
X128280002Y-119860001D01*
X124249124Y-125593442D02*
X124866443Y-126210761D01*
%TO.N,Net-(D4-+)*%
X122953082Y-122960761D02*
X118552321Y-118560000D01*
X125194877Y-122960761D02*
X122953082Y-122960761D01*
X126194877Y-123960761D02*
X125194877Y-122960761D01*
X126194877Y-123960761D02*
X126180761Y-123960761D01*
%TO.N,NEUTRO*%
X133228784Y-130438784D02*
X140750000Y-137960000D01*
X132492403Y-130438784D02*
X133228784Y-130438784D01*
X140750000Y-137960000D02*
X149790000Y-137960000D01*
X149790000Y-137960000D02*
X153380000Y-134370000D01*
X132492403Y-130438784D02*
X128468326Y-130438784D01*
X128468326Y-130438784D02*
X127514486Y-129484944D01*
%TO.N,Net-(D4-Pad4)*%
X139687594Y-127015091D02*
X135852500Y-123179997D01*
X139687594Y-127901220D02*
X139687594Y-127015091D01*
X134132506Y-123179997D02*
X129460240Y-127852263D01*
X135852500Y-123179997D02*
X134132506Y-123179997D01*
%TO.N,FASE*%
X146052503Y-123789997D02*
X151432500Y-118410000D01*
X146052503Y-124379997D02*
X146052503Y-123789997D01*
%TO.N,GND*%
X193920000Y-97620000D02*
X195850175Y-95689825D01*
X188870000Y-97620000D02*
X193920000Y-97620000D01*
X187010002Y-99479998D02*
X188870000Y-97620000D01*
X186790000Y-99479998D02*
X187010002Y-99479998D01*
X195850175Y-95689825D02*
X195850175Y-95180088D01*
%TO.N,Net-(R3-Pad2)*%
X184750000Y-102020000D02*
X189069742Y-102020000D01*
X189069742Y-102020000D02*
X190289825Y-100799917D01*
X184640000Y-102130000D02*
X184750000Y-102020000D01*
X183360002Y-100850002D02*
X184640000Y-102130000D01*
X183360002Y-100060002D02*
X183360002Y-100850002D01*
%TO.N,PB4*%
X187290002Y-107680002D02*
X190400000Y-110790000D01*
X183360002Y-107680002D02*
X187290002Y-107680002D01*
X186560006Y-104479998D02*
X183360002Y-107680002D01*
X186790000Y-104479998D02*
X186560006Y-104479998D01*
X180400000Y-101880000D02*
X167970000Y-101880000D01*
X183360002Y-104840002D02*
X180400000Y-101880000D01*
X183360002Y-107680002D02*
X183360002Y-104840002D01*
X190400000Y-110790000D02*
X190400000Y-110069998D01*
%TO.N,GND*%
X193760000Y-83010000D02*
X190990000Y-80240000D01*
X193760000Y-85740000D02*
X193760000Y-83010000D01*
X190990000Y-80240000D02*
X190990000Y-79080000D01*
X193310000Y-86190000D02*
X193760000Y-85740000D01*
X193310000Y-91160000D02*
X193310000Y-86190000D01*
X195850175Y-93700175D02*
X193310000Y-91160000D01*
X195850175Y-95180088D02*
X195850175Y-93700175D01*
%TO.N,+5V*%
X177659999Y-110790000D02*
X182780000Y-110790000D01*
X173849998Y-114600001D02*
X177659999Y-110790000D01*
%TO.N,PB1*%
X175190000Y-99360000D02*
X167900000Y-99360000D01*
X179141372Y-95408628D02*
X175190000Y-99360000D01*
X184310975Y-95408628D02*
X179141372Y-95408628D01*
%TO.N,PB2*%
X174270000Y-96740000D02*
X167960000Y-96740000D01*
X178211372Y-92798628D02*
X174270000Y-96740000D01*
X181000980Y-92798628D02*
X178211372Y-92798628D01*
%TO.N,GND*%
X187035001Y-75550149D02*
X182970148Y-75550149D01*
X182970148Y-75550149D02*
X181059997Y-73639998D01*
X190030000Y-76020000D02*
X190030000Y-74570000D01*
X190030000Y-74570000D02*
X188015150Y-74570000D01*
X190990000Y-76980000D02*
X190030000Y-76020000D01*
X188015150Y-74570000D02*
X187035001Y-75550149D01*
X190990000Y-79080000D02*
X190990000Y-76980000D01*
X190125634Y-79944366D02*
X190990000Y-79080000D01*
X190125634Y-81346590D02*
X190125634Y-79944366D01*
%TO.N,Net-(D1-A)*%
X185899022Y-81020978D02*
X185899022Y-86961369D01*
X188305001Y-78614999D02*
X185899022Y-81020978D01*
X188305001Y-77749854D02*
X188305001Y-78614999D01*
%TO.N,Net-(D2-A)*%
X189209017Y-85518758D02*
X190994365Y-83733410D01*
X189209017Y-89571369D02*
X189209017Y-85518758D01*
%TO.N,PB5*%
X172640001Y-94249999D02*
X167944997Y-94249999D01*
X177670000Y-89220000D02*
X172640001Y-94249999D01*
X177670000Y-86430000D02*
X177670000Y-89220000D01*
X182140000Y-86430000D02*
X177670000Y-86430000D01*
X183490000Y-85080000D02*
X182140000Y-86430000D01*
X183490000Y-81860000D02*
X183490000Y-85080000D01*
X182430003Y-80800003D02*
X183490000Y-81860000D01*
X181059997Y-80800003D02*
X182430003Y-80800003D01*
%TO.N,GND*%
X181059997Y-73639998D02*
X177380002Y-69960003D01*
X181059997Y-78260003D02*
X181059997Y-73639998D01*
%TO.N,+5V*%
X176859997Y-83340002D02*
X174959999Y-85240000D01*
X181060002Y-83340002D02*
X176859997Y-83340002D01*
X174959999Y-85240000D02*
X174959999Y-87900001D01*
%TO.N,GND*%
X162890000Y-58630000D02*
X162890000Y-61660000D01*
X162890000Y-61660000D02*
X162850000Y-61700000D01*
X167970000Y-58630000D02*
X162890000Y-58630000D01*
X174000000Y-64660000D02*
X167970000Y-58630000D01*
X174000000Y-72620000D02*
X174000000Y-64660000D01*
X174000000Y-72210000D02*
X174000000Y-72620000D01*
X176249997Y-69960003D02*
X174000000Y-72210000D01*
X177380002Y-69960003D02*
X176249997Y-69960003D01*
%TO.N,PC0*%
X177380002Y-78899995D02*
X174959999Y-81319998D01*
X177380002Y-77580003D02*
X177380002Y-78899995D01*
X174000000Y-80359999D02*
X174959999Y-81319998D01*
X174000000Y-77620000D02*
X174000000Y-80359999D01*
%TO.N,+5V*%
X174959999Y-87900001D02*
X171140000Y-91720000D01*
X171140000Y-91720000D02*
X168230000Y-91720000D01*
X174959999Y-83859998D02*
X174959999Y-85240000D01*
%TO.N,PC0*%
X173330002Y-81319998D02*
X174959999Y-81319998D01*
X170560002Y-84089998D02*
X173330002Y-81319998D01*
X167945000Y-84089998D02*
X170560002Y-84089998D01*
%TO.N,unconnected-(U1-AVCC-Pad20)*%
X166089995Y-91709995D02*
X165930000Y-91550000D01*
X167944998Y-91709995D02*
X166089995Y-91709995D01*
%TO.N,GND*%
X168004999Y-86570000D02*
X167944998Y-86630001D01*
%TO.N,+5V*%
X165770000Y-91660000D02*
X165350000Y-91240000D01*
%TO.N,Net-(Q1-B)*%
D14*
X179800000Y-115110000D02*
X179320000Y-115110000D01*
%TO.N,GND*%
X178820228Y-117521903D02*
X178358325Y-117060000D01*
%TO.N,+5V*%
D13*
X165350000Y-106100003D02*
X165350000Y-105686984D01*
X173849998Y-114600001D02*
X165350000Y-106100003D01*
%TO.N,Net-(D3-A)*%
X156622495Y-121220001D02*
X153432497Y-124409999D01*
X172849998Y-121220001D02*
X156622495Y-121220001D01*
X173849998Y-122220001D02*
X172849998Y-121220001D01*
%TO.N,+5V*%
X165350000Y-105686984D02*
X165350000Y-91240000D01*
X158626988Y-112409996D02*
X165350000Y-105686984D01*
X153432501Y-112409996D02*
X158626988Y-112409996D01*
%TO.N,+9V*%
X145100000Y-73920001D02*
X145100000Y-71900001D01*
X145100000Y-71900001D02*
X155549999Y-61450002D01*
%TO.N,GND*%
X155549999Y-67864215D02*
X155549999Y-66450002D01*
X147244213Y-76170001D02*
X155549999Y-67864215D01*
X139690001Y-76170001D02*
X147244213Y-76170001D01*
X137440000Y-73920000D02*
X139690001Y-76170001D01*
%TO.N,+9V*%
X130102323Y-71670000D02*
X126142323Y-75630000D01*
X142849999Y-71670000D02*
X130102323Y-71670000D01*
X145100000Y-73920001D02*
X142849999Y-71670000D01*
%TO.N,GND*%
X132852323Y-73920000D02*
X131142323Y-75630000D01*
X137440000Y-73920000D02*
X132852323Y-73920000D01*
X160810001Y-66450002D02*
X161399999Y-67040000D01*
X155549999Y-66450002D02*
X160810001Y-66450002D01*
%TO.N,+9V*%
X155799997Y-61700000D02*
X155549999Y-61450002D01*
X160310000Y-61700000D02*
X155799997Y-61700000D01*
%TO.N,GND*%
X162850000Y-65589999D02*
X161399999Y-67040000D01*
X162850000Y-61700000D02*
X162850000Y-65589999D01*
%TO.N,+5V*%
X166399999Y-62709995D02*
X165389999Y-61699995D01*
X166399999Y-67040000D02*
X166399999Y-62709995D01*
%TO.N,GND*%
X162574998Y-69124998D02*
X162574998Y-90264998D01*
X161399999Y-67949999D02*
X162574998Y-69124998D01*
X161399999Y-67040000D02*
X161399999Y-67949999D01*
%TO.N,+5V*%
X165350000Y-69610000D02*
X165350000Y-91240000D01*
X166399999Y-68560001D02*
X165350000Y-69610000D01*
X166399999Y-67040000D02*
X166399999Y-68560001D01*
%TO.N,PB6*%
X152490005Y-85630003D02*
X151400002Y-84540000D01*
X152490005Y-90130000D02*
X152490005Y-85630003D01*
%TO.N,PB7*%
X151810002Y-95690003D02*
X152490005Y-95010000D01*
X151810002Y-100950000D02*
X151810002Y-95690003D01*
%TO.N,GND*%
X162574998Y-105341986D02*
X162574998Y-90264998D01*
X158430004Y-106660004D02*
X161256980Y-106660004D01*
X156810002Y-105040002D02*
X158430004Y-106660004D01*
X161256980Y-106660004D02*
X162574998Y-105341986D01*
X156810002Y-100950000D02*
X156810002Y-105040002D01*
X162574998Y-90264998D02*
X161480004Y-89170004D01*
X161480004Y-89170004D02*
X160325001Y-89170004D01*
X159683020Y-89170004D02*
X156400002Y-85886986D01*
X156400002Y-85886986D02*
X156400002Y-84540000D01*
X160325001Y-89170004D02*
X159683020Y-89170004D01*
%TO.N,PB7*%
X153250004Y-94250001D02*
X160324993Y-94250001D01*
X152490005Y-95010000D02*
X153250004Y-94250001D01*
%TO.N,PB6*%
X152490005Y-90130000D02*
X154070012Y-91710007D01*
X154070012Y-91710007D02*
X160324998Y-91710007D01*
%TO.N,CARGA*%
X163380000Y-126662503D02*
X165632501Y-124410002D01*
X163380000Y-134370000D02*
X163380000Y-126662503D01*
%TO.N,FASE*%
X146052503Y-131697497D02*
X146052503Y-124379997D01*
X143380000Y-134370000D02*
X146052503Y-131697497D01*
%TO.N,PB5*%
X168224996Y-93970000D02*
X167944997Y-94249999D01*
%TD*%
M02*
