M48
; DRILL file KiCad 10.0.4 date 2026-07-28T22:29:53
; FORMAT={-:-/ absolute / metric / decimal}
; #@! TF.CreationDate,2026-07-28T22:29:53-03:00
; #@! TF.GenerationSoftware,Kicad,Pcbnew,10.0.4
; #@! TF.FileFunction,Plated,1,2,PTH
FMAT,2
METRIC
; #@! TA.AperFunction,Plated,PTH,ComponentDrill
T1C1.000
%
G90
G05
T1
X113.497Y-87.734
X113.7Y-92.45
X113.7Y-102.45
X114.82Y-80.23
X116.335Y-107.895
X117.134Y-77.023
X118.766Y-75.077
X119.2Y-111.52
X119.585Y-119.995
X120.2Y-103.017
X121.335Y-107.895
X122.61Y-68.1
X122.7Y-90.967
X123.15Y-85.06
X123.415Y-116.781
X125.2Y-103.017
X125.93Y-107.82
X125.935Y-125.145
X126.142Y-75.63
X126.82Y-111.52
X127.568Y-123.199
X127.61Y-68.1
X127.7Y-90.967
X129.827Y-128.41
X130.2Y-103.017
X131.142Y-75.63
X131.459Y-126.465
X131.91Y-62.03
X131.91Y-64.57
X131.91Y-67.11
X132.285Y-115.545
X132.285Y-118.045
X132.7Y-90.967
X133.016Y-131.249
X133.31Y-85.06
X135.2Y-103.017
X136.047Y-124.07
X136.09Y-107.82
X136.81Y-112.245
X136.81Y-119.865
X137.405Y-85.07
X137.44Y-73.92
X137.44Y-81.54
X137.72Y-62.81
X137.72Y-67.81
X139.35Y-112.245
X139.35Y-119.865
X140.095Y-91.99
X140.095Y-102.15
X140.542Y-129.999
X140.71Y-107.77
X141.89Y-112.245
X141.89Y-119.865
X142.635Y-102.15
X142.635Y-91.99
X142.66Y-57.445
X142.66Y-63.895
X143.559Y-135.099
X144.43Y-112.245
X144.43Y-119.865
X145.025Y-85.07
X145.1Y-73.92
X145.1Y-81.54
X145.195Y-60.645
X145.335Y-53.67
X145.71Y-107.77
X146.248Y-125.27
X147.875Y-53.67
X149.72Y-90.67
X150.195Y-60.645
X150.28Y-57.445
X150.28Y-63.895
X151.522Y-119.88
X152.05Y-71.545
X152.89Y-53.295
X152.93Y-98.675
X153.522Y-125.88
X153.523Y-113.88
X153.559Y-133.074
X154.045Y-94.77
X154.66Y-81.545
X154.66Y-84.085
X154.66Y-86.625
X154.8Y-90.67
X155.43Y-53.295
X156.585Y-94.77
X157.165Y-101.69
X157.165Y-109.31
X158.2Y-53.9
X159.19Y-78.86
X159.19Y-83.94
X159.67Y-71.545
X160.29Y-102.6
X160.29Y-107.6
X160.55Y-98.675
X160.74Y-53.9
X163.26Y-81.4
X163.26Y-76.32
X163.26Y-91.56
X163.26Y-96.64
X163.26Y-104.26
X163.26Y-83.94
X163.26Y-101.72
X163.26Y-106.8
X163.26Y-109.34
X163.26Y-78.86
X163.26Y-89.02
X163.26Y-94.1
X163.26Y-86.48
X163.26Y-99.18
X163.355Y-70.18
X163.355Y-72.72
X163.559Y-135.124
X163.74Y-56.0
X163.74Y-63.62
X165.723Y-125.88
X165.723Y-113.88
X165.895Y-70.18
X165.895Y-72.72
X167.335Y-55.96
X167.335Y-63.58
X168.435Y-70.18
X168.435Y-72.72
X170.88Y-96.64
X170.88Y-104.26
X170.88Y-91.56
X170.88Y-78.86
X170.88Y-76.32
X170.88Y-81.4
X170.88Y-83.94
X170.88Y-94.1
X170.88Y-101.72
X170.88Y-106.8
X170.88Y-109.34
X170.88Y-89.02
X170.88Y-99.18
X170.88Y-86.48
X170.975Y-70.18
X170.975Y-72.72
X173.515Y-70.18
X173.515Y-72.72
X173.57Y-112.645
X174.01Y-115.83
X174.01Y-123.45
X174.11Y-109.335
X174.11Y-99.175
X174.11Y-101.715
X174.11Y-106.795
X174.11Y-104.255
X175.535Y-84.905
X175.535Y-89.785
X175.831Y-66.187
X177.704Y-71.332
X178.65Y-112.645
X178.98Y-117.98
X178.98Y-123.43
X178.98Y-120.785
X180.435Y-83.215
X180.435Y-92.275
X183.235Y-107.91
X183.235Y-115.53
X185.435Y-83.215
X185.435Y-92.275
M30
